<svg width="114" height="70" viewBox="0 0 114 70" fill="none" xmlns="http://www.w3.org/2000/svg">
<path d="M37 68C42.5228 68 47 63.4541 47 57.8462C47 52.2382 42.5228 47.6923 37 47.6923C31.4771 47.6923 27 52.2382 27 57.8462C27 63.4541 31.4771 68 37 68Z" stroke="black" stroke-width="4" stroke-miterlimit="1.5" stroke-linecap="round" stroke-linejoin="round"/>
<path d="M87 68C92.523 68 97 63.4541 97 57.8462C97 52.2382 92.523 47.6923 87 47.6923C81.477 47.6923 77 52.2382 77 57.8462C77 63.4541 81.477 68 87 68Z" stroke="black" stroke-width="4" stroke-miterlimit="1.5" stroke-linecap="round" stroke-linejoin="round"/>
<path d="M47.25 57.8462L72 57.8462L72 5.04615C72 3.36381 70.657 2 69 2L2 2" stroke="black" stroke-width="4" stroke-linecap="round"/>
<path d="M25.25 57.8462L15 57.8462C13.3431 57.8462 12 56.4825 12 54.8L12 29.9231" stroke="black" stroke-width="4" stroke-linecap="round"/>
<path d="M7 17.2308L27 17.2308" stroke="black" stroke-width="4" stroke-linecap="round" stroke-linejoin="round"/>
<path d="M72 17.2308L100.05 17.2308C101.236 17.2308 102.31 17.9397 102.792 19.0398L111.741 39.486C111.912 39.8759 112 40.2973 112 40.7232L112 54.8C112 56.4825 110.657 57.8462 109 57.8462L99.5 57.8462" stroke="black" stroke-width="4" stroke-linecap="round"/>
<path d="M72 57.8461L77 57.8461" stroke="black" stroke-width="4" stroke-linecap="round"/>
</svg>
